<?xml version="1.0" standalone="no"?>
<!DOCTYPE svg PUBLIC "-//W3C//DTD SVG 1.1//EN" "http://www.w3.org/Graphics/SVG/1.1/DTD/svg11.dtd" >
<svg xmlns="http://www.w3.org/2000/svg">
<metadata>Generated by IcoMoon</metadata>
<defs>
<font id="icomoon" horiz-adv-x="1024">
<font-face units-per-em="1024" ascent="960" descent="-64" />
<missing-glyph horiz-adv-x="1024" />
<glyph unicode="&#x20;" horiz-adv-x="512" d="" />
<glyph unicode="&#xe900;" glyph-name="angle-bottom" d="M981.378 616.016c6.837 6.337 10.256 14.257 10.256 22.97s-3.419 16.634-10.256 22.97c-13.682 12.673-35.903 12.673-49.585 0l-435.975-403.957-435.978 403.958c-13.678 12.673-35.904 12.673-49.582 0s-13.678-33.267 0-45.94l460.768-426.928c13.677-12.673 35.904-12.673 49.581 0l460.77 426.928zM931.793 661.957v0zM495.818 257.999l53.536-57.78-53.536-49.604-53.536 49.604 53.536 57.78zM59.84 661.957v0zM10.258 616.016v0zM471.027 189.089v0zM520.608 189.089v0zM927.839 673.796c-3.891-3.607-7.869-8.699-10.791-15.295-2.93-6.618-4.183-13.373-4.183-19.515h157.538c0-31.224-12.989-59.904-35.493-80.749l-107.071 115.559zM912.864 638.986c0-6.141 1.252-12.896 4.183-19.514 2.922-6.595 6.9-11.688 10.791-15.295l107.071 115.559c22.504-20.846 35.493-49.525 35.493-80.75h-157.538zM927.839 604.177c8.909-8.256 19.551-11.485 28.751-11.485 9.192 0 19.834 3.23 28.743 11.485l-107.071 115.559c43.882 40.659 112.766 40.659 156.648 0l-107.071-115.559zM985.332 604.177l-435.979-403.958-107.072 115.559 435.98 403.957 107.071-115.559zM442.281 200.22l-435.977 403.958 107.072 115.559 435.977-403.958-107.072-115.559zM6.304 604.177c8.91-8.256 19.546-11.485 28.745-11.485s19.836 3.23 28.745 11.485l-107.072 115.559c43.882 40.659 112.772 40.659 156.653 0l-107.072-115.559zM63.794 604.177c19.967 18.5 19.967 51.119 0 69.619l-107.072-115.559c-47.322 43.846-47.322 117.653 0 161.5l107.072-115.559zM63.794 673.796l460.768-426.928-107.072-115.559-460.768 426.928 107.072 115.559zM524.562 246.868c-8.909 8.256-19.546 11.485-28.744 11.485s-19.836-3.23-28.745-11.485l107.072-115.559c-43.882-40.659-112.772-40.659-156.654 0l107.072 115.559zM467.072 246.868l460.766 426.928 107.071-115.559-460.765-426.928-107.072 115.559z" />
<glyph unicode="&#xe901;" glyph-name="angle-left" d="M721.525-45.822c6.953-6.953 15.648-10.435 25.21-10.435s18.256 3.482 25.215 10.435c13.907 13.912 13.907 36.513 0 50.425l-443.395 443.392 443.395 443.394c13.907 13.91 13.907 36.515 0 50.425-13.912 13.91-36.518 13.91-50.425 0l-468.608-468.606c-13.911-13.911-13.911-36.517 0-50.424l468.608-468.607z" />
<glyph unicode="&#xe902;" glyph-name="angle-right" d="M302.477 941.822c-6.955 6.955-15.649 10.433-25.212 10.433s-18.257-3.478-25.213-10.433c-13.91-13.91-13.91-36.515 0-50.425l443.395-443.392-443.395-443.392c-13.91-13.912-13.91-36.518 0-50.43 13.91-13.907 36.515-13.907 50.425 0l468.605 468.607c13.912 13.912 13.912 36.518 0 50.426l-468.605 468.605z" />
<glyph unicode="&#xe903;" glyph-name="angle-up" d="M61.123 256.705c-6.351-6.351-9.526-14.288-9.526-23.020s3.175-16.67 9.526-23.020c12.7-12.701 33.339-12.701 46.040 0l404.837 404.837 404.839-404.837c12.698-12.701 33.337-12.701 46.040 0 12.698 12.7 12.698 33.339 0 46.040l-427.858 427.857c-12.701 12.701-33.34 12.701-46.041 0l-427.857-427.857z" />
<glyph unicode="&#xe904;" glyph-name="arrow-right" d="M753.582 466.099l-180.037 137.761c-2.747 2.191-6.062 3.553-9.559 3.924-3.494 0.371-7.022-0.266-10.168-1.836-3.676-1.915-6.743-4.826-8.845-8.399-2.102-3.571-3.159-7.665-3.046-11.809-0.033-3.482 0.724-6.925 2.214-10.071 1.492-3.146 3.679-5.911 6.395-8.090l129.569-99.348-396.081 3.594c-3.525 0.074-7.014-0.712-10.166-2.286-3.154-1.577-5.875-3.899-7.931-6.764-2.301-3.21-3.684-6.989-3.996-10.926-0.315-3.94 0.453-7.887 2.22-11.423 1.764-3.535 4.46-6.52 7.798-8.635 3.336-2.117 7.186-3.282 11.136-3.372l392.755-3.907-125.386-96.131c-2.719-2.179-4.905-4.946-6.395-8.090-1.492-3.146-2.25-6.589-2.217-10.071-0.11-4.145 0.945-8.238 3.046-11.812 2.104-3.574 5.169-6.482 8.845-8.397 2.596-1.298 5.458-1.971 8.361-1.966 4.16 0.026 8.195 1.428 11.471 3.994l179.722 137.508c2.604 2.079 4.736 4.682 6.264 7.644 1.526 2.959 2.412 6.208 2.598 9.533 0.228 3.679-0.43 7.36-1.92 10.732-1.492 3.372-3.773 6.336-6.648 8.64zM512 960c-282.331 0-512-229.669-512-512s229.669-512 512-512c282.332 0 512 229.668 512 512s-229.668 512-512 512zM512-20.324c-258.299 0-468.323 210.025-468.323 468.324s210.024 468.323 468.323 468.323c258.299 0 468.324-210.024 468.324-468.323s-210.025-468.324-468.324-468.324z" />
<glyph unicode="&#xe905;" glyph-name="burger" d="M0 786.561h1024v-68.267h-1024v68.267zM0 513.495h1024v-68.267h-1024v68.267zM0 206.295h1024v-68.267h-1024v68.267z" />
<glyph unicode="&#xe906;" glyph-name="check" d="M11.815 408.631c-7.877 7.877-11.815 19.692-11.815 27.569s3.938 19.692 11.815 27.568l55.139 55.139c15.754 15.754 39.385 15.754 55.139 0l3.938-3.939 216.616-232.368c7.877-7.878 19.693-7.878 27.569 0l527.754 547.446h3.938c15.754 15.754 39.385 15.754 55.139 0l55.138-55.139c15.755-15.754 15.755-39.385 0-55.139l-630.154-653.784c-7.877-7.877-15.754-11.816-27.569-11.816s-19.692 3.939-27.568 11.816l-307.2 330.831-7.877 11.816z" />
<glyph unicode="&#xe907;" glyph-name="cross" d="M1024 899.767l-59.364 59.233-452.636-451.773-452.638 451.773-59.362-59.233 452.638-451.777-452.638-451.739 59.362-59.233 452.638 451.743 452.636-451.743 59.364 59.233-452.671 451.739 452.671 451.777z" />
<glyph unicode="&#xe908;" glyph-name="doc" d="M914.855-62.176h-805.727c-20.231 0-36.064 15.833-36.064 36.064v949.105c0 20.231 15.833 36.064 36.064 36.064h604.296c2.637 0 6.158 0 8.795-0.88 0.88 0 1.76-0.88 1.76-0.88 2.637-0.88 4.398-1.759 7.035-2.639 0.88-0.88 1.76-0.88 2.64-1.759 2.637-1.759 5.278-3.518 7.038-6.157l201.429-237.496c2.64-2.639 4.4-6.157 6.158-9.676 0.88-0.88 0.88-2.639 0.88-3.518 0.88-2.639 0.88-5.278 1.76-7.917 0-0.88 0-0.88 0-1.759v-711.609c0-21.111-16.713-36.944-36.064-36.944zM749.488 824.476v-103.795h87.962l-87.962 103.795zM878.791 649.432h-165.368c-20.231 0-36.064 15.833-36.064 36.065v201.432h-532.167v-876.977h733.599v639.48zM305.462 517.189h413.076c16.102 0 28.705-18.224 28.705-41.514s-12.604-41.514-28.705-41.514h-413.076c-16.103 0-28.705 18.224-28.705 41.514s12.602 41.514 28.705 41.514zM305.462 323.459h413.076c16.102 0 28.705-18.224 28.705-41.514s-12.604-41.514-28.705-41.514h-413.076c-16.103 0-28.705 18.224-28.705 41.514 0 22.276 12.602 41.514 28.705 41.514z" />
<glyph unicode="&#xe909;" glyph-name="ecology" d="M799.275 638.743c-26.774 61.202-64.033 119.451-110.746 173.13-79.368 91.198-158.265 137.525-161.587 139.452l-14.942 8.676-14.946-8.676c-3.32-1.929-82.217-48.254-161.587-139.452-46.714-53.679-83.973-111.928-110.746-173.13-33.605-76.825-50.641-158.396-50.641-242.448 0-175.29 136.086-319.388 308.156-332.206v-120.087h59.529v120.087c172.069 12.82 308.154 156.918 308.154 332.206-0.002 84.050-17.039 165.624-50.645 242.448zM379.044 771.262c37.433 43.269 75.19 75.863 103.191 97.415v-260.288l-158.622 88.945c16.375 25.463 34.875 50.164 55.431 73.928zM278.77 613.759c4.681 10.76 9.733 21.428 15.129 31.992l188.336-105.611v-189.913l-241.321 135.32c7.253 43.969 19.874 86.858 37.856 128.213zM482.236 123.834c-139.203 12.663-248.629 130.013-248.629 272.46 0 8.288 0.216 16.544 0.583 24.775l248.046-139.094v-158.14zM744.735 614.885c18.242-41.703 31.027-84.974 38.345-129.339l-241.316-135.32v189.913l188.342 105.617c5.21-10.199 10.090-20.488 14.629-30.872zM541.762 608.389v260.353c27.597-21.233 64.715-53.265 101.861-95.95 21.088-24.234 40.040-49.443 56.769-75.452l-158.63-88.951zM541.764 123.834v158.14l248.041 139.092c0.367-8.233 0.584-16.486 0.584-24.775 0.002-142.442-109.423-259.795-248.625-272.458z" />
<glyph unicode="&#xe90a;" glyph-name="expert" d="M244.829 495.029c-22.442 0-40.804-18.364-40.804-40.805 0-22.444 18.362-40.805 40.804-40.805 22.444 0 40.805 18.361 40.805 40.805 0 22.442-18.361 40.805-40.805 40.805zM244.829 739.653c-22.442 0-40.804-18.363-40.804-40.805 0-22.444 18.362-40.805 40.804-40.805 22.444 0 40.805 18.361 40.805 40.805 0 22.646-18.361 40.805-40.805 40.805zM799.371 484.828h-391.523v-61.208h391.523v61.208zM526.181 225.715h-118.333v-61.208h118.333v61.208zM799.371 729.452h-391.523v-61.206h391.523v61.206zM244.829 154.308c22.444 0 40.805 18.361 40.805 40.803 0 22.444-18.361 40.805-40.805 40.805-22.442 0-40.804-18.361-40.804-40.805 0-22.442 18.158-40.803 40.804-40.803zM801.615-8.913c31.216 0 61.82 8.365 88.546 24.483l6.733 4.080 79.569-79.569 43.254 43.254-78.55 78.548 4.692 6.938c18.974 28.358 28.97 61.615 28.97 95.687 0 95.687-77.733 173.42-173.42 173.42s-173.42-77.733-173.42-173.42c0.203-95.485 77.938-173.42 173.625-173.42zM801.615 276.721c61.82 0 112.212-50.394 112.212-112.214s-50.392-112.214-112.212-112.214c-61.82 0-112.214 50.394-112.214 112.214s50.394 112.214 112.214 112.214zM0 48.214c0-61.82 50.394-112.214 112.214-112.214h460.892v61.208h-460.892c-28.155 0-51.006 22.851-51.006 51.007v799.572c0 28.155 22.851 51.006 51.006 51.006h799.572c28.155 0 51.007-22.851 51.007-51.006v-450.691h61.208v450.691c0 61.82-50.394 112.214-112.214 112.214h-799.572c-61.82 0-112.214-50.394-112.214-112.214v-799.572z" />
<glyph unicode="&#xe90b;" glyph-name="facebook" d="M748.72 953.852l-122.805 0.208c-137.968 0-227.129-96.53-227.129-245.934v-113.393h-123.475c-10.67 0-19.31-9.127-19.31-20.386v-164.293c0-11.259 8.65-20.377 19.31-20.377h123.475v-414.561c0-11.264 8.64-20.378 19.31-20.378h161.1c10.67 0 19.31 9.128 19.31 20.378v414.561h144.372c10.669 0 19.31 9.118 19.31 20.377l0.059 164.293c0 5.406-2.039 10.583-5.655 14.409s-8.542 5.977-13.665 5.977h-144.421v96.124c0 46.201 10.433 69.655 67.466 69.655l82.727 0.031c10.66 0 19.3 9.128 19.3 20.377v152.555c0 11.238-8.63 20.356-19.28 20.377z" />
<glyph unicode="&#xe90c;" glyph-name="flag" d="M876.73 906.308c-7.832 3.157-193.86 75.981-338.601-0.768-114.688-60.877-316.007-15.206-367.463-1.997v39.39c0 9.438-7.629 17.067-17.067 17.067s-17.067-7.629-17.067-17.067v-51.2c0-0.239 0.119-0.444 0.136-0.683 0-0.205-0.136-0.376-0.136-0.58v-937.403c0-9.437 7.629-17.067 17.067-17.067s17.067 7.63 17.067 17.067v403.199c38.792-9.676 123.342-27.853 211.080-27.853 60.707 0 122.88 8.721 172.392 34.971 130.593 69.308 308.155-0.069 309.931-0.769 5.272-2.115 11.212-1.467 15.905 1.741 4.677 3.158 7.492 8.449 7.492 14.115v512c0 6.98-4.248 13.244-10.735 15.838zM853.333 402.518c-55.639 17.715-198.758 52.838-315.204-8.961-114.671-60.859-315.922-15.222-367.463-2.012v476.722c65.758-16.401 262.503-57.054 383.471 7.117 112.059 59.443 258.696 16.811 299.196 3.089v-475.955z" />
<glyph unicode="&#xe90d;" glyph-name="image" d="M463.797 489.773c56.406 0 102.305 45.891 102.305 102.297 0 56.414-45.899 102.305-102.305 102.305s-102.297-45.891-102.297-102.305c0-56.406 45.891-102.297 102.297-102.297zM463.797 634.375c23.328 0 42.305-18.977 42.305-42.305 0-23.32-18.977-42.297-42.305-42.297-23.32 0-42.297 18.977-42.297 42.297 0 23.328 18.977 42.305 42.297 42.305zM986.611 886h-949.221c-20.617 0-37.391-16.773-37.391-37.391v-803.451c0-20.621 16.773-37.395 37.391-37.395h949.221c20.614 0 37.389 16.774 37.389 37.395v803.451c0 20.618-16.774 37.391-37.389 37.391zM964 826v-474.813l-188.704 188.711c-12.301 12.282-32.314 12.274-44.608-0.023l-266.883-266.883-170.477 170.469c-5.961 5.969-13.891 9.258-22.328 9.258-8.43 0-16.352-3.281-22.313-9.242l-188.687-188.686v571.21h904zM60 67.763v102.176l211 210.998 170.468-170.467c5.969-5.971 13.898-9.267 22.336-9.267 8.422 0 16.351 3.29 22.305 9.248l266.889 266.893 211.008-211.008v-198.573h-904.006z" />
<glyph unicode="&#xe90e;" glyph-name="maternity" d="M964.401 251.001l-47.801 47.801 0.199 80.799c0 61.001-17.799 120.201-51.8 171.001l-88 131.2c-11.999 18-30.4 30-51.6 34-21.199 3.999-42.6-0.602-60.4-13.001-28.999-20.2-40.4-56.799-30.201-89.399l-52.198 52.198-136.602 136.401c-30.599 30.6-80.399 30.6-110.799 0-10.2-10.2-16.801-22.4-20.2-35.2-13.2 9.6-29.001 14.8-45.8 14.8-20.999 0-40.6-8.199-55.4-23-27.6-27.6-30.201-70.601-8.199-101.2-13.001-3.399-25.2-10.2-35.201-20.2-28.8-28.8-30.4-74.8-4.8-105.6-12.6-3.399-24.6-10.2-34.4-19.999-30.6-30.601-30.6-80.4 0-110.8l9-9c-33.8-40.6-52-90.999-52-144.4v-33.2l-82-82c-7.8-7.799-7.8-20.4 0-28.2 4-3.999 9-5.798 14.2-5.798s10.2 1.999 14.2 5.798l88 88c3.8 3.802 5.8 8.801 5.8 14.201v41.401c0 49.799 19.2 96.399 54.4 131.599l108.8 108.8c4.2 4.2 9.6 6.4 15.6 6.4 5.8 0 11.401-2.2 15.6-6.4 4.2-4.198 6.4-9.6 6.4-15.6 0-4.999-1.6-9.799-4.8-13.8l-26.999-26.6c-7.801-7.799-7.801-20.4 0-28.198 3.999-4.001 9-5.8 14.199-5.8s10.202 1.999 14.201 5.8l94.201 94.199c4.2 4.2 9.6 6.4 15.6 6.4 5.8 0 11.399-2.2 15.6-6.4 8-8 8.6-20.599 1.6-29.2l-96-96.199c-7.799-7.801-7.799-20.4 0-28.2 4.001-3.999 9-5.8 14.201-5.8s10.2 2 14.199 5.8l123.6 123.8c4.2 4.2 9.6 6.4 15.601 6.4s11.399-2.2 15.6-6.4c8.6-8.6 8.6-22.599 0-31l-123.8-123.6c-7.801-7.799-7.801-20.4 0-28.198 7.799-7.801 20.4-7.801 28.198 0l96.201 96c8.6 6.799 21.2 6.4 29.2-1.6 8.6-8.602 8.6-22.601 0-31.002l-135.002-135c-9.6-9.6-10.399-24-1.999-34.6 8.199-10.598 22.599-13.199 34.2-6.199l40.799 24.799c10.2 6.201 23.801 3.401 30.601-6.4 3.599-4.999 4.8-11.2 3.8-17.399-1.2-6.001-4.601-11.401-9.799-14.8l-94.402-63.201c-30.799-20.599-66.399-31.398-103.398-31.398h-64.4c-5.4 0-10.401-2.202-14.201-5.8l-88-88c-7.8-7.801-7.8-20.401 0-28.2 4-4.001 9-5.8 14.2-5.8s10.2 2 14.199 5.8l82 82h55.801c0.199 0 0.199 0 0.4 0 44.999 0 88.399 13.199 125.798 38.199l20.2 13.601c41.201-20.001 87.201-30.4 133.001-30.4 0.199 0 0.199 0 0.399 0h49.401l101.601-101.601c3.999-3.999 8.998-5.8 14.199-5.8s10.2 2 14.201 5.8c7.801 7.801 7.801 20.4 0 28.2l-107.401 107.399c-3.8 3.802-8.799 5.8-14.199 5.8h-57.6c-0.201 0-0.201 0-0.4 0-31.801 0-63.6 5.8-93.599 17l34.598 23.201c14.201 9.399 23.601 24 26.801 40.6 3.2 16.799-0.6 33.6-10.401 47.6-12.2 17.401-31.799 26.8-51.6 26.8-0.399 0-0.6 0-0.998 0l79.6 79.601c24.199 24.199 24.199 63.398 0 87.6-5.8 5.8-12.8 10.399-20.2 13.599 5.599 9.401 8.4 20.2 8.4 31.4 0 16.6-6.4 32.201-18.2 43.8-11.8 11.8-27.2 18.2-43.8 18.2-11.2 0-22.001-2.999-31.4-8.399-3.001 7.4-7.601 14.4-13.601 20.2-11.8 11.8-27.2 18.2-43.8 18.2s-32.199-6.4-43.8-18.2l-28.601-28.601c-2.999 6.8-7.199 12.8-12.599 18.2-11.802 11.8-27.2 18.2-43.802 18.2-16.6 0-32.199-6.4-43.8-18.2l-12.599-12.601-51.6 51.2c-15 15.002-15 39.4 0 54.4 14 14.001 36.2 15.002 51.399 2.6l50-49.999c4.001-4.001 9-5.8 14.201-5.8 5.199 0 10.2 1.999 14.199 5.8 7.801 7.799 7.801 20.4 0 28.198l-86.599 85.601c-15 15-15 39.4 0 54.4s39.4 15 54.4 0l150.8-151.201c3.999-3.999 9-5.798 14.199-5.798s10.2 1.999 14.201 5.798c7.801 7.801 7.801 20.401 0 28.2l-114.6 115.001c-12.2 15-11.399 37.4 2.6 51.399 15 15.001 39.4 15.001 54.4 0l248.6-248.6c10.401-10.399 26.401-11.399 37.8-2.2 11.6 9 14.4 24.801 6.8 37.4l-34.401 56.801c-10.8 17.799-5.8 41.2 11.2 52.999 8.801 6.201 19.401 8.4 30 6.599 10.6-1.999 19.6-8 25.6-16.998l88-131.2c29.601-44.2 45.2-95.601 45.2-148.601l-0.199-89.2c0-5.4 2-10.401 5.8-14.201l53.599-53.599c4.001-4.001 9-5.8 14.201-5.8s10.2 1.999 14.201 5.8c7.799 7.6 7.799 20.198 0 27.999zM210.6 486.001l11.001-11.001-54.201-54.201-8.2 8.201c-15 15-15 39.4 0 54.4 14 14 36.4 14.8 51.4 2.6zM721 402.401c7.801 7.801 7.801 20.4 0 28.2-7.799 7.799-20.4 7.799-28.2 0l-8.799-8.6c-37.4-37.4-37.4-98.2 0-135.4 3.999-4.001 9-5.8 14.201-5.8 5.199 0 10.2 2 14.199 5.8 7.801 7.801 7.801 20.4 0 28.2-21.8 21.8-21.8 57.2 0 79l8.6 8.6z" />
<glyph unicode="&#xe90f;" glyph-name="play" d="M708.391 430.798l-270.2-184.8c-8.4-6.199-30.8-6.199-32.6 17.201v369.6c2 23.4 24.8 23.8 32.6 17.2l270.2-184.8c7-4.2 16.6-21.399 0-34.4zM447.391 593.398v-290.8l212.2 145.4-212.2 145.4zM512-42c-270.2 0-490 219.8-490 490s219.8 490 490 490c270.2 0 490-219.8 490-490s-219.8-490-490-490zM512 896.2c-247.2 0-448.2-201-448.2-448.2s201-448.2 448.2-448.2c247.2 0 448.2 201 448.2 448.2s-201 448.2-448.2 448.2z" />
<glyph unicode="&#xe910;" glyph-name="search" d="M989.998 27.602l-235.6 235.6c58.402 71.196 93.599 162.398 93.599 261.798 0 228-184.997 413-412.997 413-228.2 0-413-185-413-413s184.8-412.997 413-412.997c99.4 0 190.403 34.998 261.599 93.394l235.6-235.395c16.003-16.003 41.802-16.003 57.799 0 16.003 15.798 16.003 41.796 0 57.6zM435 194.202c-182.6 0-331 148.4-331 330.799s148.4 331 331 331c182.398 0 330.998-148.6 330.998-331 0-182.398-148.599-330.799-330.998-330.799z" />
<glyph unicode="&#xe911;" glyph-name="users" d="M1021.661 124.822l-7.709 44.298c-14.973 57.502-43.905 110.424-84.232 154.077-10.047 10.043-16.241 18.297-33.032 30.265-37.321 31.539-80.689 55.132-127.449 69.335 37.552 22.682 66.662 57.008 82.895 97.753s18.7 85.675 7.029 127.951c-11.674 42.276-36.848 79.582-71.69 106.237s-77.445 41.201-121.321 41.421h-0.414c-43.868-0.23-86.46-14.779-121.293-41.433-34.834-26.654-60-63.953-71.672-106.221s-9.208-87.19 7.016-127.929c16.224-40.739 45.32-75.063 82.86-97.753-33.593-10.177-65.501-25.252-94.691-44.737-21.252 15.38-55.605 44.325-98.079 56.816 27.666 19.368 48.435 47.047 59.29 79.016 10.856 31.971 11.231 66.568 1.073 98.766s-30.323 60.321-57.563 80.283c-27.238 19.963-60.137 30.726-93.913 30.726-33.778 0-66.675-10.763-93.916-30.726s-47.403-48.085-57.562-80.283-9.783-66.794 1.072-98.766c10.855-31.969 31.624-59.648 59.291-79.016-54.784-18.942-102.298-54.481-135.931-101.675-33.633-47.192-51.711-103.69-51.72-161.632v-18.16c0.019-0.285 0.142-0.553 0.344-0.756s0.471-0.326 0.757-0.344h313.806l-4.788-27.515c-1.047-8.253-1.817-16.507-2.341-24.982h716.222c-0.522 8.475-1.294 16.728-2.339 24.982zM508.971 595.061c0.051 30.626 9.071 60.567 25.948 86.129s40.874 45.624 69.026 57.712c28.154 12.088 59.23 15.673 89.399 10.311 30.167-5.361 58.104-19.434 80.361-40.482s37.863-48.148 44.89-77.958c7.027-29.81 5.169-61.023-5.347-89.789s-29.227-53.826-53.828-72.083c-24.599-18.26-54.008-28.922-84.599-30.667h-17.756c-40.026 2.367-77.638 19.917-105.161 49.062-27.521 29.145-42.877 67.688-42.934 107.766zM163.234 565.346c0.004 22.598 6.684 44.69 19.203 63.507s30.317 33.52 51.164 42.265c20.847 8.745 43.813 11.142 66.017 6.89s42.658-14.962 58.796-30.788c16.136-15.826 27.238-36.063 31.914-58.173 4.674-22.108 2.714-45.105-5.638-66.103-8.352-21-22.721-39.066-41.306-51.933-18.584-12.868-40.557-19.964-63.16-20.398h-4.405c-30.056 0.584-58.687 12.929-79.738 34.382s-32.844 50.303-32.846 80.351zM276.369 406.591h3.303c84.316 0 117.815-32.686 150.847-56.541-13.351-10.152-19.27-17.773-28.353-26.825-33.72-36.53-59.546-79.614-75.864-126.564h-281.71c6.167 57.307 33.183 110.354 75.914 149.058s98.199 60.367 155.862 60.873zM666.151 145.209h-308.302c15 68.87 52.589 130.757 106.801 175.829s121.936 70.75 192.416 72.952c2.753-0.248 5.837-0.274 8.671-0.274h0.414c2.753 0 5.863 0 8.671 0.274 70.48-2.202 138.205-27.879 192.416-72.952 54.213-45.072 91.802-106.959 106.801-175.829h-307.888z" />
<glyph unicode="&#xe912;" glyph-name="vk" d="M884.64 518.274c13.71 17.717 24.588 31.933 32.623 42.658 57.868 76.94 82.956 126.090 75.264 147.518l-3.012 5.019c-2.006 3.014-7.204 5.783-15.559 8.288-8.367 2.504-19.064 2.904-32.105 1.251l-144.517-1.019c-3.343 0.333-6.692 0.255-10.035-0.232-3.349-0.508-5.518-1.019-6.53-1.506-1.006-0.511-1.837-0.92-2.506-1.253l-2-1.506c-1.675-0.997-3.512-2.759-5.518-5.275-2.012-2.515-3.692-5.43-5.024-8.786-15.721-40.475-33.611-78.114-53.688-112.905-12.378-20.742-23.757-38.736-34.117-53.936-10.373-15.235-19.070-26.438-26.094-33.616-7.023-7.191-13.384-12.973-19.064-17.308-5.698-4.365-10.041-6.193-13.043-5.529-3.017 0.664-5.863 1.329-8.533 2.017-4.685 3.002-8.455 7.092-11.29 12.287-2.846 5.172-4.763 11.701-5.774 19.567-0.997 7.855-1.595 14.635-1.75 20.331-0.178 5.683-0.089 13.705 0.255 24.088 0.333 10.372 0.498 17.384 0.498 21.073 0 12.699 0.255 26.503 0.757 41.394 0.498 14.88 0.92 26.68 1.251 35.379 0.333 8.687 0.498 17.895 0.498 27.6 0 9.684-0.587 17.308-1.765 22.835-1.173 5.507-2.935 10.859-5.261 16.055-2.348 5.174-5.774 9.197-10.294 12.032-4.519 2.848-10.117 5.097-16.806 6.782-17.74 4.023-40.32 6.172-67.743 6.525-62.225 0.643-102.201-3.367-119.929-12.054-7.025-3.69-13.385-8.697-19.067-15.058-6.027-7.369-6.858-11.389-2.504-12.032 20.076-3.015 34.282-10.217 42.647-21.584l3.015-6.016c2.337-4.365 4.676-12.055 7.024-23.091 2.34-11.036 3.845-23.246 4.521-36.63 1.673-24.419 1.673-45.317 0-62.725-1.673-17.406-3.258-30.946-4.763-40.63-1.508-9.706-3.768-17.561-6.771-23.577-3.015-6.038-5.019-9.717-6.027-11.056-1.008-1.329-1.84-2.171-2.504-2.506-4.354-1.662-8.864-2.504-13.549-2.504-4.687 0-10.372 2.35-17.063 7.037-6.693 4.664-13.64 11.113-20.82 19.312-7.202 8.187-15.302 19.654-24.343 34.38-9.030 14.702-18.405 32.11-28.1 52.175l-8.022 14.559c-5.018 9.351-11.878 22.991-20.576 40.885s-16.398 35.201-23.079 51.942c-2.681 7.013-6.693 12.365-12.043 16.055l-2.504 1.506c-1.673 1.331-4.354 2.759-8.033 4.256-3.69 1.506-7.523 2.593-11.545 3.268l-137.49-0.997c-14.049 0-23.577-3.192-28.596-9.55l-2.006-3.004c-1.014-1.684-1.512-4.365-1.512-8.033 0-3.689 1.008-8.199 3.014-13.54 20.076-47.178 41.904-92.673 65.482-136.482 23.591-43.833 44.077-79.132 61.472-105.891 17.395-26.78 35.123-52.020 53.194-75.774s30.026-38.969 35.876-45.649c5.849-6.704 10.448-11.722 13.796-15.059l12.543-12.053c8.022-8.023 19.823-17.637 35.38-28.853 15.555-11.21 32.774-22.245 51.688-33.105 18.892-10.885 40.896-19.733 65.98-26.606 25.086-6.867 49.504-9.626 73.259-8.276h57.706c11.712 1 20.572 4.668 26.591 11.041l2.005 2.5c1.329 2 2.593 5.096 3.765 9.276 1.164 4.18 1.765 8.788 1.765 13.794-0.346 14.378 0.753 27.365 3.257 38.888 2.504 11.547 5.349 20.233 8.532 26.106 3.179 5.843 6.767 10.782 10.789 14.806 4.013 4.024 6.849 6.427 8.532 7.264 1.673 0.825 3.017 1.41 4.014 1.765 8.019 2.674 17.47 0.078 28.349-7.776 10.872-7.879 21.076-17.565 30.618-29.106 9.529-11.547 20.98-24.498 34.37-38.894 13.372-14.378 25.082-25.082 35.123-32.105l10.035-6.042c6.692-4 15.378-7.68 26.094-11.035 10.704-3.337 20.076-4.18 28.1-2.506l128.458 2.018c12.71 0 22.582 2.084 29.606 6.27 7.023 4.156 11.204 8.788 12.547 13.794 1.325 5.018 1.416 10.68 0.253 17.053-1.175 6.349-2.349 10.782-3.512 13.288-1.169 2.5-2.259 4.608-3.271 6.27-16.727 30.1-48.67 67.078-95.84 110.897l-1.006 0.998-0.5 0.508-0.5 0.489h-0.5c-21.42 20.409-34.961 34.126-40.641 41.162-10.373 13.361-12.722 26.913-7.023 40.628 3.988 10.401 19.034 32.317 45.122 65.779z" />
</font>
</defs>
</svg>
